<svg width="36" height="36" viewBox="0 0 36 36" fill="none" xmlns="http://www.w3.org/2000/svg">
<path d="M33.3648 0H2.5585C1.14692 0 0 1.16296 0 2.59059V33.3407C0 34.7684 1.14692 35.9313 2.5585 35.9313H33.3648C34.7764 35.9313 35.9313 34.7684 35.9313 33.3407V2.59059C35.9313 1.16296 34.7764 0 33.3648 0ZM10.8596 30.7983H5.53407V13.6507H10.8676V30.7983H10.8596ZM8.19684 11.3087C6.48849 11.3087 5.10899 9.92122 5.10899 8.2209C5.10899 6.52057 6.48849 5.13305 8.19684 5.13305C9.89716 5.13305 11.2847 6.52057 11.2847 8.2209C11.2847 9.92924 9.90518 11.3087 8.19684 11.3087ZM30.8223 30.7983H25.4968V22.4571C25.4968 20.468 25.4567 17.9095 22.7298 17.9095C19.9547 17.9095 19.5296 20.075 19.5296 22.3127V30.7983H14.2041V13.6507H19.3131V15.9927H19.3853C20.0991 14.6452 21.8395 13.2256 24.4301 13.2256C29.8198 13.2256 30.8223 16.7786 30.8223 21.3984V30.7983Z" fill="#076077"/>
</svg>
