<svg width="44" height="44" viewBox="0 0 44 44" fill="none" xmlns="http://www.w3.org/2000/svg">
<path d="M30.0205 5.95805C32.146 5.96439 34.1826 6.81154 35.6855 8.31447C37.1885 9.81741 38.0356 11.854 38.042 13.9795V30.0205C38.0356 32.146 37.1885 34.1826 35.6855 35.6855C34.1826 37.1885 32.146 38.0356 30.0205 38.042H13.9795C11.854 38.0356 9.81741 37.1885 8.31447 35.6855C6.81154 34.1826 5.96439 32.146 5.95805 30.0205V13.9795C5.96439 11.854 6.81154 9.81741 8.31447 8.31447C9.81741 6.81154 11.854 5.96439 13.9795 5.95805H30.0205V5.95805ZM30.0205 2.75H13.9795C7.80312 2.75 2.75 7.80312 2.75 13.9795V30.0205C2.75 36.1969 7.80312 41.25 13.9795 41.25H30.0205C36.1969 41.25 41.25 36.1969 41.25 30.0205V13.9795C41.25 7.80312 36.1969 2.75 30.0205 2.75V2.75Z" fill="#076077"/>
<path d="M32.4268 13.9795C31.9508 13.9795 31.4856 13.8384 31.0899 13.574C30.6942 13.3096 30.3858 12.9338 30.2037 12.4941C30.0215 12.0544 29.9739 11.5706 30.0667 11.1038C30.1596 10.637 30.3888 10.2083 30.7253 9.87177C31.0618 9.53525 31.4906 9.30607 31.9573 9.21323C32.4241 9.12038 32.9079 9.16803 33.3476 9.35016C33.7873 9.53228 34.1631 9.8407 34.4275 10.2364C34.6919 10.6321 34.833 11.0973 34.833 11.5732C34.8337 11.8894 34.7719 12.2026 34.6512 12.4949C34.5305 12.7871 34.3533 13.0527 34.1298 13.2762C33.9062 13.4998 33.6406 13.677 33.3484 13.7977C33.0561 13.9184 32.7429 13.9802 32.4268 13.9795V13.9795Z" fill="#076077"/>
<path d="M22 15.583C23.2691 15.583 24.5098 15.9594 25.5651 16.6645C26.6203 17.3696 27.4428 18.3718 27.9285 19.5443C28.4142 20.7169 28.5412 22.0071 28.2936 23.2519C28.046 24.4967 27.4349 25.64 26.5375 26.5375C25.64 27.4349 24.4966 28.0461 23.2519 28.2937C22.0071 28.5413 20.7169 28.4142 19.5443 27.9285C18.3718 27.4428 17.3696 26.6203 16.6645 25.5651C15.9594 24.5098 15.583 23.2692 15.583 22C15.5849 20.2987 16.2615 18.6676 17.4645 17.4645C18.6676 16.2615 20.2987 15.5849 22 15.583V15.583ZM22 12.375C20.0964 12.375 18.2355 12.9395 16.6526 13.9971C15.0698 15.0547 13.8362 16.5579 13.1077 18.3167C12.3792 20.0754 12.1886 22.0107 12.5599 23.8777C12.9313 25.7448 13.848 27.4598 15.1941 28.8059C16.5402 30.152 18.2552 31.0687 20.1223 31.4401C21.9893 31.8114 23.9246 31.6208 25.6833 30.8923C27.4421 30.1638 28.9453 28.9302 30.0029 27.3474C31.0605 25.7645 31.625 23.9036 31.625 22C31.625 19.4473 30.6109 16.9991 28.8059 15.1941C27.0009 13.3891 24.5527 12.375 22 12.375V12.375Z" fill="#076077"/>
</svg>
