<svg width="314" height="272" viewBox="0 0 314 272" fill="none" xmlns="http://www.w3.org/2000/svg">
<path fill-rule="evenodd" clip-rule="evenodd" d="M118.642 1.21477C172.914 -0.981566 231.291 12.5924 252.704 62.7491C281.201 129.501 288.236 217.56 228.409 258.326C171.454 297.137 102.905 245.509 50.8221 200.313C13.8732 168.251 -1.65882 118.815 14.1506 72.4032C29.2167 28.174 72.1554 3.09607 118.642 1.21477Z" fill="#FFD262"/>
<path d="M34.0171 77.9919C33.8704 77.9919 33.7504 77.9453 33.6571 77.8519C33.5638 77.7586 33.5171 77.6386 33.5171 77.4919V64.4919C33.5171 64.3453 33.5638 64.2253 33.6571 64.1319C33.7504 64.0386 33.8704 63.9919 34.0171 63.9919H43.0771C43.2238 63.9919 43.3438 64.0386 43.4371 64.1319C43.5304 64.2253 43.5771 64.3453 43.5771 64.4919V66.0919C43.5771 66.2253 43.5304 66.3386 43.4371 66.4319C43.3438 66.5253 43.2238 66.5719 43.0771 66.5719H36.5971V69.7119H42.6371C42.7838 69.7119 42.9038 69.7586 42.9971 69.8519C43.0904 69.9453 43.1371 70.0653 43.1371 70.2119V71.6919C43.1371 71.8253 43.0904 71.9386 42.9971 72.0319C42.9038 72.1253 42.7838 72.1719 42.6371 72.1719H36.5971V75.4119H43.2371C43.3838 75.4119 43.5038 75.4586 43.5971 75.5519C43.6904 75.6453 43.7371 75.7653 43.7371 75.9119V77.4919C43.7371 77.6386 43.6904 77.7586 43.5971 77.8519C43.5038 77.9453 43.3838 77.9919 43.2371 77.9919H34.0171ZM46.6148 77.9919C46.4681 77.9919 46.3481 77.9453 46.2548 77.8519C46.1614 77.7586 46.1148 77.6386 46.1148 77.4919V64.4919C46.1148 64.3453 46.1614 64.2253 46.2548 64.1319C46.3481 64.0386 46.4681 63.9919 46.6148 63.9919H48.4348C48.6348 63.9919 48.7814 64.0386 48.8748 64.1319C48.9681 64.2253 49.0281 64.2986 49.0548 64.3519L54.3948 72.6919V64.4919C54.3948 64.3453 54.4414 64.2253 54.5348 64.1319C54.6281 64.0386 54.7414 63.9919 54.8748 63.9919H56.9148C57.0614 63.9919 57.1814 64.0386 57.2748 64.1319C57.3681 64.2253 57.4148 64.3453 57.4148 64.4919V77.4919C57.4148 77.6253 57.3681 77.7453 57.2748 77.8519C57.1814 77.9453 57.0614 77.9919 56.9148 77.9919H55.0748C54.8748 77.9919 54.7281 77.9453 54.6348 77.8519C54.5548 77.7453 54.4948 77.6719 54.4548 77.6319L49.1348 69.5519V77.4919C49.1348 77.6386 49.0881 77.7586 48.9948 77.8519C48.9014 77.9453 48.7814 77.9919 48.6348 77.9919H46.6148ZM60.8726 77.9919C60.7259 77.9919 60.6059 77.9453 60.5126 77.8519C60.4192 77.7586 60.3726 77.6386 60.3726 77.4919V64.4919C60.3726 64.3453 60.4192 64.2253 60.5126 64.1319C60.6059 64.0386 60.7259 63.9919 60.8726 63.9919H69.7926C69.9392 63.9919 70.0592 64.0386 70.1526 64.1319C70.2459 64.2253 70.2926 64.3453 70.2926 64.4919V66.1919C70.2926 66.3386 70.2459 66.4586 70.1526 66.5519C70.0592 66.6453 69.9392 66.6919 69.7926 66.6919H63.4926V70.0719H69.3926C69.5392 70.0719 69.6592 70.1186 69.7526 70.2119C69.8459 70.3053 69.8926 70.4253 69.8926 70.5719V72.2719C69.8926 72.4053 69.8459 72.5186 69.7526 72.6119C69.6592 72.7053 69.5392 72.7519 69.3926 72.7519H63.4926V77.4919C63.4926 77.6386 63.4459 77.7586 63.3526 77.8519C63.2592 77.9453 63.1392 77.9919 62.9926 77.9919H60.8726ZM70.9393 77.9919C70.8193 77.9919 70.7193 77.9519 70.6393 77.8719C70.5593 77.7786 70.5193 77.6786 70.5193 77.5719C70.5193 77.5053 70.526 77.4453 70.5393 77.3919L75.2993 64.5319C75.3393 64.3853 75.4193 64.2586 75.5393 64.1519C75.6593 64.0453 75.826 63.9919 76.0393 63.9919H78.5993C78.8126 63.9919 78.9793 64.0453 79.0993 64.1519C79.2193 64.2586 79.2993 64.3853 79.3393 64.5319L84.0993 77.3919C84.1126 77.4453 84.1193 77.5053 84.1193 77.5719C84.1193 77.6786 84.0793 77.7786 83.9993 77.8719C83.9193 77.9519 83.8193 77.9919 83.6993 77.9919H81.6193C81.4193 77.9919 81.2726 77.9453 81.1793 77.8519C81.086 77.7586 81.026 77.6719 80.9993 77.5919L80.1393 75.3519H74.4993L73.6393 77.5919C73.6126 77.6719 73.5526 77.7586 73.4593 77.8519C73.366 77.9453 73.2193 77.9919 73.0193 77.9919H70.9393ZM75.2393 72.7719H79.3793L77.3193 67.0119L75.2393 72.7719ZM86.3413 77.9919C86.1947 77.9919 86.0747 77.9453 85.9813 77.8519C85.888 77.7586 85.8413 77.6386 85.8413 77.4919V64.4919C85.8413 64.3453 85.888 64.2253 85.9813 64.1319C86.0747 64.0386 86.1947 63.9919 86.3413 63.9919H88.1613C88.3613 63.9919 88.508 64.0386 88.6013 64.1319C88.6947 64.2253 88.7547 64.2986 88.7813 64.3519L94.1213 72.6919V64.4919C94.1213 64.3453 94.168 64.2253 94.2613 64.1319C94.3547 64.0386 94.468 63.9919 94.6013 63.9919H96.6413C96.788 63.9919 96.908 64.0386 97.0013 64.1319C97.0947 64.2253 97.1413 64.3453 97.1413 64.4919V77.4919C97.1413 77.6253 97.0947 77.7453 97.0013 77.8519C96.908 77.9453 96.788 77.9919 96.6413 77.9919H94.8013C94.6013 77.9919 94.4547 77.9453 94.3613 77.8519C94.2813 77.7453 94.2213 77.6719 94.1813 77.6319L88.8613 69.5519V77.4919C88.8613 77.6386 88.8147 77.7586 88.7213 77.8519C88.628 77.9453 88.508 77.9919 88.3613 77.9919H86.3413ZM103.679 77.9919C103.532 77.9919 103.412 77.9453 103.319 77.8519C103.226 77.7586 103.179 77.6386 103.179 77.4919V66.7719H99.5391C99.4058 66.7719 99.2925 66.7253 99.1991 66.6319C99.1058 66.5386 99.0591 66.4253 99.0591 66.2919V64.4919C99.0591 64.3453 99.1058 64.2253 99.1991 64.1319C99.2925 64.0386 99.4058 63.9919 99.5391 63.9919H110.019C110.166 63.9919 110.286 64.0386 110.379 64.1319C110.472 64.2253 110.519 64.3453 110.519 64.4919V66.2919C110.519 66.4253 110.472 66.5386 110.379 66.6319C110.286 66.7253 110.166 66.7719 110.019 66.7719H106.399V77.4919C106.399 77.6386 106.352 77.7586 106.259 77.8519C106.166 77.9453 106.046 77.9919 105.899 77.9919H103.679Z" fill="white"/>
<path fill-rule="evenodd" clip-rule="evenodd" d="M229.976 13.0024C252.303 12.798 271.803 25.4215 286.547 42.1566C302.424 60.1791 318.26 82.7061 311.731 105.802C305.394 128.22 279.399 136.09 257.623 144.475C238.81 151.718 219.471 154.897 200.283 148.713C176.393 141.014 147.918 131.567 142.013 107.216C136.072 82.7216 157.476 61.619 174.691 43.1806C189.756 27.0451 207.878 13.2048 229.976 13.0024Z" fill="#0E56CA"/>
<path d="M167.051 96.2C165.798 96.2 164.725 95.9933 163.831 95.58C162.951 95.1533 162.265 94.54 161.771 93.74C161.291 92.9267 161.031 91.9467 160.991 90.8C160.978 90.2267 160.971 89.6133 160.971 88.96C160.971 88.3067 160.978 87.6867 160.991 87.1C161.031 85.98 161.291 85.0267 161.771 84.24C162.265 83.4533 162.958 82.8533 163.851 82.44C164.758 82.0133 165.825 81.8 167.051 81.8C168.038 81.8 168.905 81.9267 169.651 82.18C170.398 82.4333 171.025 82.7667 171.531 83.18C172.038 83.58 172.425 84.02 172.691 84.5C172.958 84.98 173.098 85.44 173.111 85.88C173.111 86 173.071 86.1067 172.991 86.2C172.911 86.28 172.805 86.32 172.671 86.32H170.191C170.058 86.32 169.951 86.2933 169.871 86.24C169.805 86.1867 169.745 86.1067 169.691 86C169.598 85.76 169.445 85.52 169.231 85.28C169.031 85.0267 168.758 84.8133 168.411 84.64C168.065 84.4667 167.611 84.38 167.051 84.38C166.211 84.38 165.545 84.6 165.051 85.04C164.571 85.48 164.311 86.2 164.271 87.2C164.231 88.3467 164.231 89.5133 164.271 90.7C164.311 91.74 164.578 92.4867 165.071 92.94C165.578 93.3933 166.251 93.62 167.091 93.62C167.638 93.62 168.125 93.5267 168.551 93.34C168.991 93.14 169.338 92.8333 169.591 92.42C169.845 92.0067 169.971 91.48 169.971 90.84V90.34H167.791C167.658 90.34 167.545 90.2933 167.451 90.2C167.358 90.0933 167.311 89.9733 167.311 89.84V88.56C167.311 88.4133 167.358 88.2933 167.451 88.2C167.545 88.1067 167.658 88.06 167.791 88.06H172.691C172.838 88.06 172.958 88.1067 173.051 88.2C173.145 88.2933 173.191 88.4133 173.191 88.56V90.74C173.191 91.8867 172.938 92.8667 172.431 93.68C171.938 94.4933 171.225 95.12 170.291 95.56C169.371 95.9867 168.291 96.2 167.051 96.2ZM174.517 96C174.397 96 174.297 95.96 174.217 95.88C174.137 95.7867 174.097 95.6867 174.097 95.58C174.097 95.5133 174.104 95.4533 174.117 95.4L178.877 82.54C178.917 82.3933 178.997 82.2667 179.117 82.16C179.237 82.0533 179.404 82 179.617 82H182.177C182.391 82 182.557 82.0533 182.677 82.16C182.797 82.2667 182.877 82.3933 182.917 82.54L187.677 95.4C187.691 95.4533 187.697 95.5133 187.697 95.58C187.697 95.6867 187.657 95.7867 187.577 95.88C187.497 95.96 187.397 96 187.277 96H185.197C184.997 96 184.851 95.9533 184.757 95.86C184.664 95.7667 184.604 95.68 184.577 95.6L183.717 93.36H178.077L177.217 95.6C177.191 95.68 177.131 95.7667 177.037 95.86C176.944 95.9533 176.797 96 176.597 96H174.517ZM178.817 90.78H182.957L180.897 85.02L178.817 90.78ZM189.199 96C189.053 96 188.933 95.9533 188.839 95.86C188.746 95.7533 188.699 95.6333 188.699 95.5V93.82C188.699 93.6333 188.739 93.48 188.819 93.36C188.899 93.24 188.959 93.1533 188.999 93.1L195.719 84.66H189.379C189.246 84.66 189.133 84.6133 189.039 84.52C188.946 84.4267 188.899 84.3133 188.899 84.18V82.5C188.899 82.3533 188.946 82.2333 189.039 82.14C189.133 82.0467 189.246 82 189.379 82H199.199C199.346 82 199.466 82.0467 199.559 82.14C199.666 82.2333 199.719 82.3533 199.719 82.5V84.16C199.719 84.3067 199.693 84.44 199.639 84.56C199.586 84.6667 199.526 84.76 199.459 84.84L192.919 93.32H199.439C199.586 93.32 199.706 93.3667 199.799 93.46C199.893 93.5533 199.939 93.6733 199.939 93.82V95.5C199.939 95.6467 199.893 95.7667 199.799 95.86C199.706 95.9533 199.586 96 199.439 96H189.199ZM207.597 96.2C206.383 96.2 205.337 96 204.457 95.6C203.577 95.2 202.89 94.6 202.397 93.8C201.903 92.9867 201.637 91.9667 201.597 90.74C201.583 90.1667 201.577 89.6 201.577 89.04C201.577 88.4667 201.583 87.8867 201.597 87.3C201.637 86.1 201.903 85.0933 202.397 84.28C202.903 83.4533 203.597 82.8333 204.477 82.42C205.37 82.0067 206.41 81.8 207.597 81.8C208.77 81.8 209.797 82.0067 210.677 82.42C211.57 82.8333 212.27 83.4533 212.777 84.28C213.283 85.0933 213.55 86.1 213.577 87.3C213.603 87.8867 213.617 88.4667 213.617 89.04C213.617 89.6 213.603 90.1667 213.577 90.74C213.537 91.9667 213.27 92.9867 212.777 93.8C212.283 94.6 211.597 95.2 210.717 95.6C209.837 96 208.797 96.2 207.597 96.2ZM207.597 93.62C208.37 93.62 209.003 93.3867 209.497 92.92C210.003 92.44 210.27 91.68 210.297 90.64C210.323 90.0533 210.337 89.5067 210.337 89C210.337 88.48 210.323 87.9333 210.297 87.36C210.283 86.6667 210.157 86.1 209.917 85.66C209.677 85.22 209.357 84.9 208.957 84.7C208.57 84.4867 208.117 84.38 207.597 84.38C207.077 84.38 206.617 84.4867 206.217 84.7C205.817 84.9 205.497 85.22 205.257 85.66C205.03 86.1 204.903 86.6667 204.877 87.36C204.863 87.9333 204.857 88.48 204.857 89C204.857 89.5067 204.863 90.0533 204.877 90.64C204.917 91.68 205.183 92.44 205.677 92.92C206.17 93.3867 206.81 93.62 207.597 93.62ZM221.819 96.2C220.646 96.2 219.619 96.0067 218.739 95.62C217.859 95.22 217.179 94.6133 216.699 93.8C216.219 92.9733 215.979 91.9267 215.979 90.66V82.5C215.979 82.3533 216.026 82.2333 216.119 82.14C216.212 82.0467 216.332 82 216.479 82H218.659C218.806 82 218.926 82.0467 219.019 82.14C219.112 82.2333 219.159 82.3533 219.159 82.5V90.64C219.159 91.6267 219.392 92.36 219.859 92.84C220.326 93.32 220.979 93.56 221.819 93.56C222.646 93.56 223.292 93.32 223.759 92.84C224.226 92.36 224.459 91.6267 224.459 90.64V82.5C224.459 82.3533 224.506 82.2333 224.599 82.14C224.706 82.0467 224.826 82 224.959 82H227.159C227.292 82 227.406 82.0467 227.499 82.14C227.592 82.2333 227.639 82.3533 227.639 82.5V90.66C227.639 91.9267 227.399 92.9733 226.919 93.8C226.439 94.6133 225.766 95.22 224.899 95.62C224.032 96.0067 223.006 96.2 221.819 96.2ZM234.614 96C234.467 96 234.347 95.9533 234.254 95.86C234.161 95.7667 234.114 95.6467 234.114 95.5V91.1L229.434 82.64C229.421 82.6 229.407 82.5667 229.394 82.54C229.381 82.5 229.374 82.46 229.374 82.42C229.374 82.3133 229.414 82.22 229.494 82.14C229.587 82.0467 229.687 82 229.794 82H231.914C232.101 82 232.247 82.0467 232.354 82.14C232.461 82.2333 232.534 82.32 232.574 82.4L235.714 87.9L238.854 82.4C238.894 82.32 238.967 82.2333 239.074 82.14C239.181 82.0467 239.327 82 239.514 82H241.634C241.741 82 241.834 82.0467 241.914 82.14C242.007 82.22 242.054 82.3133 242.054 82.42C242.054 82.46 242.047 82.5 242.034 82.54C242.021 82.5667 242.007 82.6 241.994 82.64L237.314 91.1V95.5C237.314 95.6467 237.267 95.7667 237.174 95.86C237.081 95.9533 236.961 96 236.814 96H234.614ZM244.412 96C244.265 96 244.145 95.9533 244.052 95.86C243.958 95.7667 243.912 95.6467 243.912 95.5V82.5C243.912 82.3533 243.958 82.2333 244.052 82.14C244.145 82.0467 244.265 82 244.412 82H246.672C246.818 82 246.938 82.0467 247.032 82.14C247.125 82.2333 247.172 82.3533 247.172 82.5V95.5C247.172 95.6467 247.125 95.7667 247.032 95.86C246.938 95.9533 246.818 96 246.672 96H244.412ZM255.037 96C254.89 96 254.77 95.9533 254.677 95.86C254.583 95.7667 254.537 95.6467 254.537 95.5V82.5C254.537 82.3533 254.583 82.2333 254.677 82.14C254.77 82.0467 254.89 82 255.037 82H260.497C261.577 82 262.51 82.1667 263.297 82.5C264.097 82.8333 264.717 83.34 265.157 84.02C265.61 84.6867 265.837 85.52 265.837 86.52C265.837 87.5333 265.61 88.3733 265.157 89.04C264.717 89.6933 264.097 90.18 263.297 90.5C262.51 90.82 261.577 90.98 260.497 90.98H257.817V95.5C257.817 95.6467 257.77 95.7667 257.677 95.86C257.583 95.9533 257.463 96 257.317 96H255.037ZM257.757 88.5H260.397C261.077 88.5 261.603 88.3333 261.977 88C262.363 87.6667 262.557 87.1667 262.557 86.5C262.557 85.9133 262.383 85.4333 262.037 85.06C261.703 84.6867 261.157 84.5 260.397 84.5H257.757V88.5ZM268.376 96C268.23 96 268.11 95.9533 268.016 95.86C267.923 95.7667 267.876 95.6467 267.876 95.5V82.5C267.876 82.3533 267.923 82.2333 268.016 82.14C268.11 82.0467 268.23 82 268.376 82H273.676C275.343 82 276.656 82.3867 277.616 83.16C278.576 83.92 279.056 85.02 279.056 86.46C279.056 87.4333 278.823 88.2467 278.356 88.9C277.89 89.5533 277.263 90.04 276.476 90.36L279.296 95.36C279.336 95.44 279.356 95.5133 279.356 95.58C279.356 95.6867 279.316 95.7867 279.236 95.88C279.156 95.96 279.056 96 278.936 96H276.716C276.476 96 276.296 95.94 276.176 95.82C276.056 95.6867 275.97 95.5667 275.916 95.46L273.476 90.88H271.056V95.5C271.056 95.6467 271.01 95.7667 270.916 95.86C270.823 95.9533 270.703 96 270.556 96H268.376ZM271.056 88.34H273.616C274.35 88.34 274.89 88.1733 275.236 87.84C275.596 87.5067 275.776 87.04 275.776 86.44C275.776 85.84 275.603 85.3667 275.256 85.02C274.91 84.6733 274.363 84.5 273.616 84.5H271.056V88.34ZM287.011 96.2C285.797 96.2 284.751 96 283.871 95.6C282.991 95.2 282.304 94.6 281.811 93.8C281.317 92.9867 281.051 91.9667 281.011 90.74C280.997 90.1667 280.991 89.6 280.991 89.04C280.991 88.4667 280.997 87.8867 281.011 87.3C281.051 86.1 281.317 85.0933 281.811 84.28C282.317 83.4533 283.011 82.8333 283.891 82.42C284.784 82.0067 285.824 81.8 287.011 81.8C288.184 81.8 289.211 82.0067 290.091 82.42C290.984 82.8333 291.684 83.4533 292.191 84.28C292.697 85.0933 292.964 86.1 292.991 87.3C293.017 87.8867 293.031 88.4667 293.031 89.04C293.031 89.6 293.017 90.1667 292.991 90.74C292.951 91.9667 292.684 92.9867 292.191 93.8C291.697 94.6 291.011 95.2 290.131 95.6C289.251 96 288.211 96.2 287.011 96.2ZM287.011 93.62C287.784 93.62 288.417 93.3867 288.911 92.92C289.417 92.44 289.684 91.68 289.711 90.64C289.737 90.0533 289.751 89.5067 289.751 89C289.751 88.48 289.737 87.9333 289.711 87.36C289.697 86.6667 289.571 86.1 289.331 85.66C289.091 85.22 288.771 84.9 288.371 84.7C287.984 84.4867 287.531 84.38 287.011 84.38C286.491 84.38 286.031 84.4867 285.631 84.7C285.231 84.9 284.911 85.22 284.671 85.66C284.444 86.1 284.317 86.6667 284.291 87.36C284.277 87.9333 284.271 88.48 284.271 89C284.271 89.5067 284.277 90.0533 284.291 90.64C284.331 91.68 284.597 92.44 285.091 92.92C285.584 93.3867 286.224 93.62 287.011 93.62Z" fill="white"/>
<path fill-rule="evenodd" clip-rule="evenodd" d="M88.9756 119.002C111.303 118.798 130.803 131.422 145.547 148.157C161.424 166.179 177.26 188.706 170.731 211.802C164.394 234.22 138.399 242.09 116.623 250.475C97.8104 257.718 78.4715 260.897 59.2831 254.713C35.3932 247.014 6.91782 237.567 1.01257 213.216C-4.92752 188.722 16.4761 167.619 33.6911 149.181C48.7561 133.045 66.8775 119.205 88.9756 119.002Z" fill="#76C9C3"/>
<path d="M30.4203 201.2C29.167 201.2 28.0936 200.993 27.2003 200.58C26.3203 200.153 25.6336 199.54 25.1403 198.74C24.6603 197.927 24.4003 196.947 24.3603 195.8C24.347 195.227 24.3403 194.613 24.3403 193.96C24.3403 193.307 24.347 192.687 24.3603 192.1C24.4003 190.98 24.6603 190.027 25.1403 189.24C25.6336 188.453 26.327 187.853 27.2203 187.44C28.127 187.013 29.1936 186.8 30.4203 186.8C31.407 186.8 32.2736 186.927 33.0203 187.18C33.767 187.433 34.3936 187.767 34.9003 188.18C35.407 188.58 35.7936 189.02 36.0603 189.5C36.327 189.98 36.467 190.44 36.4803 190.88C36.4803 191 36.4403 191.107 36.3603 191.2C36.2803 191.28 36.1736 191.32 36.0403 191.32H33.5603C33.427 191.32 33.3203 191.293 33.2403 191.24C33.1736 191.187 33.1136 191.107 33.0603 191C32.967 190.76 32.8136 190.52 32.6003 190.28C32.4003 190.027 32.127 189.813 31.7803 189.64C31.4336 189.467 30.9803 189.38 30.4203 189.38C29.5803 189.38 28.9136 189.6 28.4203 190.04C27.9403 190.48 27.6803 191.2 27.6403 192.2C27.6003 193.347 27.6003 194.513 27.6403 195.7C27.6803 196.74 27.947 197.487 28.4403 197.94C28.947 198.393 29.6203 198.62 30.4603 198.62C31.007 198.62 31.4936 198.527 31.9203 198.34C32.3603 198.14 32.707 197.833 32.9603 197.42C33.2136 197.007 33.3403 196.48 33.3403 195.84V195.34H31.1603C31.027 195.34 30.9136 195.293 30.8203 195.2C30.727 195.093 30.6803 194.973 30.6803 194.84V193.56C30.6803 193.413 30.727 193.293 30.8203 193.2C30.9136 193.107 31.027 193.06 31.1603 193.06H36.0603C36.207 193.06 36.327 193.107 36.4203 193.2C36.5136 193.293 36.5603 193.413 36.5603 193.56V195.74C36.5603 196.887 36.307 197.867 35.8003 198.68C35.307 199.493 34.5936 200.12 33.6603 200.56C32.7403 200.987 31.6603 201.2 30.4203 201.2ZM37.8866 201C37.7666 201 37.6666 200.96 37.5866 200.88C37.5066 200.787 37.4666 200.687 37.4666 200.58C37.4666 200.513 37.4732 200.453 37.4866 200.4L42.2466 187.54C42.2866 187.393 42.3666 187.267 42.4866 187.16C42.6066 187.053 42.7732 187 42.9866 187H45.5466C45.7599 187 45.9266 187.053 46.0466 187.16C46.1666 187.267 46.2466 187.393 46.2866 187.54L51.0466 200.4C51.0599 200.453 51.0666 200.513 51.0666 200.58C51.0666 200.687 51.0266 200.787 50.9466 200.88C50.8666 200.96 50.7666 201 50.6466 201H48.5666C48.3666 201 48.2199 200.953 48.1266 200.86C48.0332 200.767 47.9732 200.68 47.9466 200.6L47.0866 198.36H41.4466L40.5866 200.6C40.5599 200.68 40.4999 200.767 40.4066 200.86C40.3132 200.953 40.1666 201 39.9666 201H37.8866ZM42.1866 195.78H46.3266L44.2666 190.02L42.1866 195.78ZM52.5686 201C52.4219 201 52.3019 200.953 52.2086 200.86C52.1153 200.753 52.0686 200.633 52.0686 200.5V198.82C52.0686 198.633 52.1086 198.48 52.1886 198.36C52.2686 198.24 52.3286 198.153 52.3686 198.1L59.0886 189.66H52.7486C52.6153 189.66 52.5019 189.613 52.4086 189.52C52.3153 189.427 52.2686 189.313 52.2686 189.18V187.5C52.2686 187.353 52.3153 187.233 52.4086 187.14C52.5019 187.047 52.6153 187 52.7486 187H62.5686C62.7153 187 62.8353 187.047 62.9286 187.14C63.0353 187.233 63.0886 187.353 63.0886 187.5V189.16C63.0886 189.307 63.0619 189.44 63.0086 189.56C62.9553 189.667 62.8953 189.76 62.8286 189.84L56.2886 198.32H62.8086C62.9553 198.32 63.0753 198.367 63.1686 198.46C63.2619 198.553 63.3086 198.673 63.3086 198.82V200.5C63.3086 200.647 63.2619 200.767 63.1686 200.86C63.0753 200.953 62.9553 201 62.8086 201H52.5686ZM70.9658 201.2C69.7524 201.2 68.7058 201 67.8258 200.6C66.9458 200.2 66.2591 199.6 65.7658 198.8C65.2724 197.987 65.0058 196.967 64.9658 195.74C64.9524 195.167 64.9458 194.6 64.9458 194.04C64.9458 193.467 64.9524 192.887 64.9658 192.3C65.0058 191.1 65.2724 190.093 65.7658 189.28C66.2724 188.453 66.9658 187.833 67.8458 187.42C68.7391 187.007 69.7791 186.8 70.9658 186.8C72.1391 186.8 73.1658 187.007 74.0458 187.42C74.9391 187.833 75.6391 188.453 76.1458 189.28C76.6524 190.093 76.9191 191.1 76.9458 192.3C76.9724 192.887 76.9858 193.467 76.9858 194.04C76.9858 194.6 76.9724 195.167 76.9458 195.74C76.9058 196.967 76.6391 197.987 76.1458 198.8C75.6524 199.6 74.9658 200.2 74.0858 200.6C73.2058 201 72.1658 201.2 70.9658 201.2ZM70.9658 198.62C71.7391 198.62 72.3724 198.387 72.8658 197.92C73.3724 197.44 73.6391 196.68 73.6658 195.64C73.6924 195.053 73.7058 194.507 73.7058 194C73.7058 193.48 73.6924 192.933 73.6658 192.36C73.6524 191.667 73.5258 191.1 73.2858 190.66C73.0458 190.22 72.7258 189.9 72.3258 189.7C71.9391 189.487 71.4858 189.38 70.9658 189.38C70.4458 189.38 69.9858 189.487 69.5858 189.7C69.1858 189.9 68.8658 190.22 68.6258 190.66C68.3991 191.1 68.2724 191.667 68.2458 192.36C68.2324 192.933 68.2258 193.48 68.2258 194C68.2258 194.507 68.2324 195.053 68.2458 195.64C68.2858 196.68 68.5524 197.44 69.0458 197.92C69.5391 198.387 70.1791 198.62 70.9658 198.62ZM85.1883 201.2C84.0149 201.2 82.9883 201.007 82.1083 200.62C81.2283 200.22 80.5483 199.613 80.0683 198.8C79.5883 197.973 79.3483 196.927 79.3483 195.66V187.5C79.3483 187.353 79.3949 187.233 79.4883 187.14C79.5816 187.047 79.7016 187 79.8483 187H82.0283C82.1749 187 82.2949 187.047 82.3883 187.14C82.4816 187.233 82.5283 187.353 82.5283 187.5V195.64C82.5283 196.627 82.7616 197.36 83.2283 197.84C83.6949 198.32 84.3483 198.56 85.1883 198.56C86.0149 198.56 86.6616 198.32 87.1283 197.84C87.5949 197.36 87.8283 196.627 87.8283 195.64V187.5C87.8283 187.353 87.8749 187.233 87.9683 187.14C88.0749 187.047 88.1949 187 88.3283 187H90.5283C90.6616 187 90.7749 187.047 90.8683 187.14C90.9616 187.233 91.0083 187.353 91.0083 187.5V195.66C91.0083 196.927 90.7683 197.973 90.2883 198.8C89.8083 199.613 89.1349 200.22 88.2683 200.62C87.4016 201.007 86.3749 201.2 85.1883 201.2ZM97.9833 201C97.8366 201 97.7166 200.953 97.6233 200.86C97.5299 200.767 97.4833 200.647 97.4833 200.5V196.1L92.8033 187.64C92.7899 187.6 92.7766 187.567 92.7633 187.54C92.7499 187.5 92.7433 187.46 92.7433 187.42C92.7433 187.313 92.7833 187.22 92.8633 187.14C92.9566 187.047 93.0566 187 93.1633 187H95.2833C95.4699 187 95.6166 187.047 95.7233 187.14C95.8299 187.233 95.9033 187.32 95.9433 187.4L99.0833 192.9L102.223 187.4C102.263 187.32 102.337 187.233 102.443 187.14C102.55 187.047 102.697 187 102.883 187H105.003C105.11 187 105.203 187.047 105.283 187.14C105.377 187.22 105.423 187.313 105.423 187.42C105.423 187.46 105.417 187.5 105.403 187.54C105.39 187.567 105.377 187.6 105.363 187.64L100.683 196.1V200.5C100.683 200.647 100.637 200.767 100.543 200.86C100.45 200.953 100.33 201 100.183 201H97.9833ZM107.781 201C107.634 201 107.514 200.953 107.421 200.86C107.327 200.767 107.281 200.647 107.281 200.5V187.5C107.281 187.353 107.327 187.233 107.421 187.14C107.514 187.047 107.634 187 107.781 187H110.041C110.187 187 110.307 187.047 110.401 187.14C110.494 187.233 110.541 187.353 110.541 187.5V200.5C110.541 200.647 110.494 200.767 110.401 200.86C110.307 200.953 110.187 201 110.041 201H107.781ZM116.578 201C116.458 201 116.358 200.96 116.278 200.88C116.198 200.787 116.158 200.687 116.158 200.58C116.158 200.513 116.165 200.453 116.178 200.4L120.938 187.54C120.978 187.393 121.058 187.267 121.178 187.16C121.298 187.053 121.465 187 121.678 187H124.238C124.451 187 124.618 187.053 124.738 187.16C124.858 187.267 124.938 187.393 124.978 187.54L129.738 200.4C129.751 200.453 129.758 200.513 129.758 200.58C129.758 200.687 129.718 200.787 129.638 200.88C129.558 200.96 129.458 201 129.338 201H127.258C127.058 201 126.911 200.953 126.818 200.86C126.725 200.767 126.665 200.68 126.638 200.6L125.778 198.36H120.138L119.278 200.6C119.251 200.68 119.191 200.767 119.098 200.86C119.005 200.953 118.858 201 118.658 201H116.578ZM120.878 195.78H125.018L122.958 190.02L120.878 195.78ZM131.98 201C131.833 201 131.713 200.953 131.62 200.86C131.527 200.767 131.48 200.647 131.48 200.5V187.5C131.48 187.353 131.527 187.233 131.62 187.14C131.713 187.047 131.833 187 131.98 187H137.44C138.52 187 139.453 187.167 140.24 187.5C141.04 187.833 141.66 188.34 142.1 189.02C142.553 189.687 142.78 190.52 142.78 191.52C142.78 192.533 142.553 193.373 142.1 194.04C141.66 194.693 141.04 195.18 140.24 195.5C139.453 195.82 138.52 195.98 137.44 195.98H134.76V200.5C134.76 200.647 134.713 200.767 134.62 200.86C134.527 200.953 134.407 201 134.26 201H131.98ZM134.7 193.5H137.34C138.02 193.5 138.547 193.333 138.92 193C139.307 192.667 139.5 192.167 139.5 191.5C139.5 190.913 139.327 190.433 138.98 190.06C138.647 189.687 138.1 189.5 137.34 189.5H134.7V193.5ZM145.32 201C145.173 201 145.053 200.953 144.96 200.86C144.867 200.767 144.82 200.647 144.82 200.5V187.5C144.82 187.353 144.867 187.233 144.96 187.14C145.053 187.047 145.173 187 145.32 187H150.78C151.86 187 152.793 187.167 153.58 187.5C154.38 187.833 155 188.34 155.44 189.02C155.893 189.687 156.12 190.52 156.12 191.52C156.12 192.533 155.893 193.373 155.44 194.04C155 194.693 154.38 195.18 153.58 195.5C152.793 195.82 151.86 195.98 150.78 195.98H148.1V200.5C148.1 200.647 148.053 200.767 147.96 200.86C147.867 200.953 147.747 201 147.6 201H145.32ZM148.04 193.5H150.68C151.36 193.5 151.887 193.333 152.26 193C152.647 192.667 152.84 192.167 152.84 191.5C152.84 190.913 152.667 190.433 152.32 190.06C151.987 189.687 151.44 189.5 150.68 189.5H148.04V193.5Z" fill="white"/>
</svg>
